<svg xmlns="http://www.w3.org/2000/svg" xmlns:xlink="http://www.w3.org/1999/xlink" width="500" zoomAndPan="magnify" viewBox="0 0 375 374.999991" height="500" preserveAspectRatio="xMidYMid meet" version="1.0"><defs><g/><clipPath id="4c4282784d"><path d="M 155.636719 29.199219 L 216 29.199219 L 216 145 L 155.636719 145 Z M 155.636719 29.199219 " clip-rule="nonzero"/></clipPath><clipPath id="a4a86434a7"><path d="M 159 99 L 219.386719 99 L 219.386719 214 L 159 214 Z M 159 99 " clip-rule="nonzero"/></clipPath><clipPath id="e7f2d6a3d6"><path d="M 157 151 L 198 151 L 198 218.949219 L 157 218.949219 Z M 157 151 " clip-rule="nonzero"/></clipPath></defs><g clip-path="url(#4c4282784d)"><path fill="#004aad" d="M 169.46875 29.390625 C 169.46875 29.390625 144.71875 60.484375 161.429688 83.96875 C 178.144531 107.449219 194.566406 125.035156 197.769531 128.773438 C 200.976562 132.511719 209.910156 142.511719 211.179688 144.011719 C 217.429688 136.140625 219.859375 113.046875 203.421875 100.066406 C 186.984375 87.085938 152.085938 63.746094 169.46875 29.390625 Z M 169.46875 29.390625 " fill-opacity="1" fill-rule="nonzero"/></g><g clip-path="url(#a4a86434a7)"><path fill="#004aad" d="M 205.535156 213.988281 C 205.535156 213.988281 230.289062 182.894531 213.574219 159.414062 C 196.863281 135.929688 180.4375 118.34375 177.234375 114.605469 C 174.03125 110.871094 165.097656 100.867188 163.824219 99.367188 C 157.578125 107.238281 155.144531 130.332031 171.582031 143.3125 C 188.023438 156.296875 222.914062 179.632812 205.535156 213.988281 Z M 205.535156 213.988281 " fill-opacity="1" fill-rule="nonzero"/></g><path fill="#004aad" d="M 212.695312 65.304688 C 212.695312 66.328125 212.59375 67.339844 212.394531 68.339844 C 212.195312 69.339844 211.902344 70.3125 211.511719 71.257812 C 211.121094 72.199219 210.640625 73.097656 210.074219 73.945312 C 209.507812 74.792969 208.863281 75.578125 208.140625 76.300781 C 207.417969 77.023438 206.632812 77.667969 205.78125 78.234375 C 204.933594 78.804688 204.039062 79.28125 203.09375 79.671875 C 202.152344 80.0625 201.179688 80.359375 200.175781 80.558594 C 199.175781 80.757812 198.164062 80.855469 197.144531 80.855469 C 196.121094 80.855469 195.109375 80.757812 194.109375 80.558594 C 193.109375 80.359375 192.136719 80.0625 191.191406 79.671875 C 190.25 79.28125 189.351562 78.804688 188.503906 78.234375 C 187.65625 77.667969 186.867188 77.023438 186.148438 76.300781 C 185.425781 75.578125 184.78125 74.792969 184.214844 73.945312 C 183.644531 73.097656 183.167969 72.199219 182.777344 71.257812 C 182.386719 70.3125 182.089844 69.339844 181.890625 68.339844 C 181.691406 67.339844 181.59375 66.328125 181.59375 65.304688 C 181.59375 64.285156 181.691406 63.273438 181.890625 62.273438 C 182.089844 61.269531 182.386719 60.296875 182.777344 59.355469 C 183.167969 58.410156 183.644531 57.515625 184.214844 56.667969 C 184.78125 55.816406 185.425781 55.03125 186.148438 54.308594 C 186.867188 53.585938 187.65625 52.941406 188.503906 52.375 C 189.351562 51.808594 190.25 51.328125 191.191406 50.9375 C 192.136719 50.546875 193.109375 50.253906 194.109375 50.054688 C 195.109375 49.855469 196.121094 49.753906 197.144531 49.753906 C 198.164062 49.753906 199.175781 49.855469 200.175781 50.054688 C 201.179688 50.253906 202.152344 50.546875 203.09375 50.9375 C 204.039062 51.328125 204.933594 51.808594 205.78125 52.375 C 206.632812 52.941406 207.417969 53.585938 208.140625 54.308594 C 208.863281 55.03125 209.507812 55.816406 210.074219 56.667969 C 210.640625 57.515625 211.121094 58.410156 211.511719 59.355469 C 211.902344 60.296875 212.195312 61.269531 212.394531 62.273438 C 212.59375 63.273438 212.695312 64.285156 212.695312 65.304688 Z M 212.695312 65.304688 " fill-opacity="1" fill-rule="nonzero"/><g clip-path="url(#e7f2d6a3d6)"><path fill="#004aad" d="M 197.808594 188.71875 C 197.808594 182.085938 192.417969 176.695312 185.785156 176.695312 C 179.152344 176.695312 173.761719 182.085938 173.761719 188.71875 C 173.761719 194.886719 178.453125 199.925781 184.441406 200.601562 L 184.441406 205.625 C 184.441406 211.21875 179.890625 215.765625 174.304688 215.765625 C 169.210938 215.765625 165.058594 211.613281 165.058594 206.519531 L 165.058594 163.308594 C 167.773438 162.695312 169.808594 160.277344 169.808594 157.378906 C 169.808594 154.015625 167.082031 151.289062 163.71875 151.289062 C 160.355469 151.289062 157.628906 154.015625 157.628906 157.378906 C 157.628906 160.277344 159.664062 162.695312 162.375 163.308594 L 162.375 206.519531 C 162.375 213.101562 167.730469 218.457031 174.3125 218.457031 C 181.382812 218.457031 187.140625 212.699219 187.140625 205.625 L 187.140625 200.601562 C 193.117188 199.925781 197.808594 194.886719 197.808594 188.71875 Z M 185.785156 198.046875 C 180.640625 198.046875 176.445312 193.863281 176.445312 188.71875 C 176.445312 183.574219 180.632812 179.386719 185.785156 179.386719 C 190.9375 179.386719 195.121094 183.574219 195.121094 188.71875 C 195.117188 193.863281 190.929688 198.046875 185.785156 198.046875 Z M 185.785156 198.046875 " fill-opacity="1" fill-rule="nonzero"/></g><path fill="#004aad" d="M 185.785156 182.816406 C 182.523438 182.816406 179.882812 185.457031 179.882812 188.71875 C 179.882812 191.980469 182.523438 194.621094 185.785156 194.621094 C 189.046875 194.621094 191.6875 191.980469 191.6875 188.71875 C 191.6875 185.457031 189.039062 182.816406 185.785156 182.816406 Z M 185.785156 182.816406 " fill-opacity="1" fill-rule="nonzero"/><g fill="#1368db" fill-opacity="1"><g transform="translate(89.581734, 298.791016)"><g><path d="M 34.121094 0 L 19.976562 -35.066406 L 14.5625 -35.066406 L 0.472656 0 L 5.308594 0 L 8.410156 -7.78125 L 26.183594 -7.78125 L 29.285156 0 Z M 24.867188 -11.671875 L 9.671875 -11.671875 L 17.296875 -31.175781 Z M 24.867188 -11.671875 "/></g></g></g><g fill="#1368db" fill-opacity="1"><g transform="translate(132.059797, 298.791016)"><g><path d="M 24.761719 0 L 24.761719 -3.890625 L 8.464844 -3.890625 L 8.464844 -35.066406 L 4.101562 -35.066406 L 4.101562 0 Z M 24.761719 0 "/></g></g></g><g fill="#1368db" fill-opacity="1"><g transform="translate(166.757469, 298.791016)"><g><path d="M 8.464844 0 L 8.464844 -13.933594 L 18.191406 -13.933594 C 25.128906 -13.933594 29.179688 -18.769531 29.179688 -24.5 C 29.179688 -30.230469 25.234375 -35.066406 18.191406 -35.066406 L 4.101562 -35.066406 L 4.101562 0 Z M 24.65625 -24.5 C 24.65625 -20.558594 21.820312 -17.824219 17.664062 -17.824219 L 8.464844 -17.824219 L 8.464844 -31.175781 L 17.664062 -31.175781 C 21.820312 -31.175781 24.65625 -28.441406 24.65625 -24.5 Z M 24.65625 -24.5 "/></g></g></g><g fill="#1368db" fill-opacity="1"><g transform="translate(205.503041, 298.791016)"><g><path d="M 33.332031 0 L 33.332031 -35.066406 L 28.96875 -35.066406 L 28.96875 -19.976562 L 8.464844 -19.976562 L 8.464844 -35.066406 L 4.101562 -35.066406 L 4.101562 0 L 8.464844 0 L 8.464844 -16.089844 L 28.96875 -16.089844 L 28.96875 0 Z M 33.332031 0 "/></g></g></g><g fill="#1368db" fill-opacity="1"><g transform="translate(250.819891, 298.791016)"><g><path d="M 34.121094 0 L 19.976562 -35.066406 L 14.5625 -35.066406 L 0.472656 0 L 5.308594 0 L 8.410156 -7.78125 L 26.183594 -7.78125 L 29.285156 0 Z M 24.867188 -11.671875 L 9.671875 -11.671875 L 17.296875 -31.175781 Z M 24.867188 -11.671875 "/></g></g></g><g fill="#1368db" fill-opacity="1"><g transform="translate(48.074328, 338.085213)"><g><path d="M 15.984375 -15.109375 L 15.984375 0 L 14.0625 0 L 14.0625 -11.90625 L 9.734375 -3.015625 L 7.984375 -3.015625 L 3.671875 -11.9375 L 3.671875 0 L 1.734375 0 L 1.734375 -15.109375 L 4.3125 -15.109375 L 8.890625 -5.5 L 13.5 -15.109375 Z M 15.984375 -15.109375 "/></g></g></g><g fill="#1368db" fill-opacity="1"><g transform="translate(77.835912, 338.085213)"><g><path d="M 11.765625 -1.921875 L 11.765625 0 L 1.734375 0 L 1.734375 -15.109375 L 11.546875 -15.109375 L 11.546875 -13.265625 L 3.78125 -13.265625 L 3.78125 -8.625 L 10.65625 -8.625 L 10.65625 -6.828125 L 3.78125 -6.828125 L 3.78125 -1.921875 Z M 11.765625 -1.921875 "/></g></g></g><g fill="#1368db" fill-opacity="1"><g transform="translate(102.48962, 338.085213)"><g><path d="M 6.125 0 L 1.734375 0 L 1.734375 -15.109375 L 6.125 -15.109375 C 7.664062 -15.109375 8.890625 -14.976562 9.796875 -14.71875 C 10.703125 -14.46875 11.429688 -14.0625 11.984375 -13.5 C 12.523438 -12.9375 12.921875 -12.175781 13.171875 -11.21875 C 13.421875 -10.257812 13.546875 -9.046875 13.546875 -7.578125 C 13.546875 -4.953125 12.957031 -3.03125 11.78125 -1.8125 C 10.613281 -0.601562 8.726562 0 6.125 0 Z M 10.4375 -12.03125 C 10.070312 -12.46875 9.554688 -12.78125 8.890625 -12.96875 C 8.234375 -13.164062 7.3125 -13.265625 6.125 -13.265625 L 3.78125 -13.265625 L 3.78125 -1.921875 L 6.125 -1.921875 C 8.113281 -1.921875 9.5 -2.347656 10.28125 -3.203125 C 11.0625 -4.054688 11.453125 -5.515625 11.453125 -7.578125 C 11.453125 -8.710938 11.367188 -9.632812 11.203125 -10.34375 C 11.046875 -11.050781 10.789062 -11.613281 10.4375 -12.03125 Z M 10.4375 -12.03125 "/></g></g></g><g fill="#1368db" fill-opacity="1"><g transform="translate(129.143102, 338.085213)"><g><path d="M 3.78125 -15.109375 L 3.78125 0 L 1.734375 0 L 1.734375 -15.109375 Z M 3.78125 -15.109375 "/></g></g></g><g fill="#1368db" fill-opacity="1"><g transform="translate(146.71325, 338.085213)"><g><path d="M 7.734375 -1.734375 C 8.398438 -1.734375 9.097656 -1.804688 9.828125 -1.953125 C 10.554688 -2.109375 11.234375 -2.316406 11.859375 -2.578125 L 11.859375 -0.75 C 10.972656 -0.394531 10.1875 -0.148438 9.5 -0.015625 C 8.820312 0.117188 8.113281 0.1875 7.375 0.1875 C 5.0625 0.1875 3.429688 -0.410156 2.484375 -1.609375 C 1.535156 -2.804688 1.0625 -4.800781 1.0625 -7.59375 C 1.0625 -10.28125 1.609375 -12.242188 2.703125 -13.484375 C 3.804688 -14.734375 5.566406 -15.359375 7.984375 -15.359375 C 8.722656 -15.359375 9.378906 -15.34375 9.953125 -15.3125 C 10.535156 -15.28125 11.0625 -15.222656 11.53125 -15.140625 L 11.53125 -13.328125 C 10.96875 -13.390625 10.398438 -13.429688 9.828125 -13.453125 C 9.253906 -13.484375 8.640625 -13.5 7.984375 -13.5 C 6.179688 -13.5 4.925781 -13.050781 4.21875 -12.15625 C 3.507812 -11.269531 3.15625 -9.75 3.15625 -7.59375 C 3.15625 -5.40625 3.476562 -3.878906 4.125 -3.015625 C 4.769531 -2.160156 5.972656 -1.734375 7.734375 -1.734375 Z M 7.734375 -1.734375 "/></g></g></g><g fill="#1368db" fill-opacity="1"><g transform="translate(171.246486, 338.085213)"><g><path d="M 2.359375 0 L 0.1875 0 L 6.171875 -15.109375 L 8.296875 -15.109375 L 14.203125 0 L 12.03125 0 L 10.65625 -3.640625 L 3.734375 -3.640625 Z M 7.1875 -13.234375 C 7.019531 -12.671875 6.828125 -12.078125 6.609375 -11.453125 C 6.398438 -10.828125 6.179688 -10.203125 5.953125 -9.578125 L 4.40625 -5.453125 L 9.984375 -5.453125 L 8.4375 -9.578125 C 8.113281 -10.453125 7.859375 -11.160156 7.671875 -11.703125 C 7.492188 -12.253906 7.332031 -12.765625 7.1875 -13.234375 Z M 7.1875 -13.234375 "/></g></g></g><g fill="#1368db" fill-opacity="1"><g transform="translate(197.707227, 338.085213)"><g><path d="M 11 -1.921875 L 11 0 L 1.734375 0 L 1.734375 -15.109375 L 3.78125 -15.109375 L 3.78125 -1.921875 Z M 11 -1.921875 "/></g></g></g><g fill="#1368db" fill-opacity="1"><g transform="translate(221.132149, 338.085213)"><g/></g></g><g fill="#1368db" fill-opacity="1"><g transform="translate(237.304858, 338.085213)"><g><path d="M 7.734375 -1.734375 C 8.398438 -1.734375 9.097656 -1.804688 9.828125 -1.953125 C 10.554688 -2.109375 11.234375 -2.316406 11.859375 -2.578125 L 11.859375 -0.75 C 10.972656 -0.394531 10.1875 -0.148438 9.5 -0.015625 C 8.820312 0.117188 8.113281 0.1875 7.375 0.1875 C 5.0625 0.1875 3.429688 -0.410156 2.484375 -1.609375 C 1.535156 -2.804688 1.0625 -4.800781 1.0625 -7.59375 C 1.0625 -10.28125 1.609375 -12.242188 2.703125 -13.484375 C 3.804688 -14.734375 5.566406 -15.359375 7.984375 -15.359375 C 8.722656 -15.359375 9.378906 -15.34375 9.953125 -15.3125 C 10.535156 -15.28125 11.0625 -15.222656 11.53125 -15.140625 L 11.53125 -13.328125 C 10.96875 -13.390625 10.398438 -13.429688 9.828125 -13.453125 C 9.253906 -13.484375 8.640625 -13.5 7.984375 -13.5 C 6.179688 -13.5 4.925781 -13.050781 4.21875 -12.15625 C 3.507812 -11.269531 3.15625 -9.75 3.15625 -7.59375 C 3.15625 -5.40625 3.476562 -3.878906 4.125 -3.015625 C 4.769531 -2.160156 5.972656 -1.734375 7.734375 -1.734375 Z M 7.734375 -1.734375 "/></g></g></g><g fill="#1368db" fill-opacity="1"><g transform="translate(261.838094, 338.085213)"><g><path d="M 2.359375 0 L 0.1875 0 L 6.171875 -15.109375 L 8.296875 -15.109375 L 14.203125 0 L 12.03125 0 L 10.65625 -3.640625 L 3.734375 -3.640625 Z M 7.1875 -13.234375 C 7.019531 -12.671875 6.828125 -12.078125 6.609375 -11.453125 C 6.398438 -10.828125 6.179688 -10.203125 5.953125 -9.578125 L 4.40625 -5.453125 L 9.984375 -5.453125 L 8.4375 -9.578125 C 8.113281 -10.453125 7.859375 -11.160156 7.671875 -11.703125 C 7.492188 -12.253906 7.332031 -12.765625 7.1875 -13.234375 Z M 7.1875 -13.234375 "/></g></g></g><g fill="#1368db" fill-opacity="1"><g transform="translate(288.298847, 338.085213)"><g><path d="M 3.78125 -5.421875 L 3.78125 0 L 1.734375 0 L 1.734375 -15.109375 L 6.875 -15.109375 C 9.007812 -15.109375 10.535156 -14.742188 11.453125 -14.015625 C 12.378906 -13.285156 12.84375 -12.078125 12.84375 -10.390625 C 12.84375 -9.078125 12.550781 -8.03125 11.96875 -7.25 C 11.382812 -6.46875 10.5 -5.941406 9.3125 -5.671875 L 13.265625 0 L 10.796875 0 L 7.140625 -5.421875 Z M 10.78125 -10.390625 C 10.78125 -11.421875 10.484375 -12.15625 9.890625 -12.59375 C 9.296875 -13.039062 8.289062 -13.265625 6.875 -13.265625 L 3.78125 -13.265625 L 3.78125 -7.234375 L 6.875 -7.234375 C 8.25 -7.234375 9.242188 -7.484375 9.859375 -7.984375 C 10.472656 -8.484375 10.78125 -9.285156 10.78125 -10.390625 Z M 10.78125 -10.390625 "/></g></g></g><g fill="#1368db" fill-opacity="1"><g transform="translate(314.30179, 338.085213)"><g><path d="M 11.765625 -1.921875 L 11.765625 0 L 1.734375 0 L 1.734375 -15.109375 L 11.546875 -15.109375 L 11.546875 -13.265625 L 3.78125 -13.265625 L 3.78125 -8.625 L 10.65625 -8.625 L 10.65625 -6.828125 L 3.78125 -6.828125 L 3.78125 -1.921875 Z M 11.765625 -1.921875 "/></g></g></g></svg>